<svg width="50" height="48" viewBox="0 0 50 48" fill="none" xmlns="http://www.w3.org/2000/svg">
<path d="M49.2567 8.70498V39.295C49.2567 41.7165 48.3985 43.7701 46.7126 45.4559C45.0268 47.1418 42.9425 48 40.5517 48H8.70498C6.28353 48 4.22988 47.1418 2.54406 45.4559C0.858236 43.7701 0 41.6858 0 39.295V8.70498C0 6.28352 0.858236 4.22988 2.54406 2.54406C4.22988 0.858234 6.31418 0 8.70498 0H40.5211C42.9425 0 44.9962 0.858234 46.682 2.54406C48.3985 4.22988 49.2567 6.28352 49.2567 8.70498ZM47.1724 38.4981V9.47126C47.1724 7.41762 46.4368 5.67049 44.9962 4.19923C43.5556 2.72796 41.7778 2.02299 39.7241 2.02299H9.47126C7.41762 2.02299 5.6705 2.75862 4.19923 4.19923C2.72797 5.67049 2.02299 7.41762 2.02299 9.50192V38.4981C2.02299 40.5517 2.75862 42.3295 4.19923 43.7701C5.6705 45.2414 7.41762 45.9464 9.47126 45.9464H39.7241C41.7778 45.9464 43.5249 45.2414 44.9655 43.8008C46.4061 42.3908 47.1418 40.613 47.1724 38.4981Z" fill="#FF7E1B"/>
<path d="M47.1724 9.47122V38.498C47.1417 40.613 46.4061 42.3907 44.9655 43.8314C43.5249 45.272 41.7777 45.977 39.7241 45.977H9.47123C7.41759 45.977 5.67046 45.2413 4.19919 43.8007C2.72793 42.3295 2.02295 40.5823 2.02295 38.5287V9.53252C2.02295 7.47888 2.75858 5.7011 4.19919 4.22984C5.67046 2.75857 7.41759 2.05359 9.47123 2.05359H39.7241C41.7777 2.05359 43.5555 2.78922 44.9961 4.22984C46.4674 5.67045 47.1724 7.41758 47.1724 9.47122ZM37.7931 36.1992V18.2682C37.7931 18.0536 37.7011 17.9616 37.5172 17.9923H33.9616C33.7471 17.9923 33.6551 18.0842 33.6858 18.2682L33.7164 36.1685C33.7164 36.3524 33.8084 36.4444 34.0229 36.475H37.5172C37.6398 36.475 37.7318 36.4444 37.7624 36.4138C37.7624 36.3525 37.7931 36.2911 37.7931 36.1992ZM38.0689 13.1187C38.0689 11.7394 37.3026 10.9731 35.7394 10.7892C35.0957 10.7892 34.544 11.0038 34.0843 11.4022C33.6245 11.8007 33.4099 12.3831 33.4099 13.1187C33.4099 14.6206 34.1762 15.3869 35.6781 15.4482C36.3524 15.4482 36.9348 15.2337 37.3639 14.8352C37.8237 14.4367 38.0689 13.8544 38.0689 13.1187ZM30.1302 36.475C30.3141 36.475 30.3754 36.3831 30.2835 36.1685L23.0498 11.6475C23.0191 11.5555 23.0191 11.4942 22.9885 11.4636C22.9578 11.4329 22.8965 11.4022 22.8046 11.4022H18.0536C17.931 11.4022 17.8697 11.4636 17.8697 11.6168C17.839 12.1379 17.839 12.567 17.8084 12.8122C17.7777 13.0574 17.7164 13.3026 17.6551 13.5172L11.2184 36.0766C11.1877 36.1992 11.2184 36.2911 11.2184 36.3524C11.249 36.4138 11.3103 36.4444 11.4636 36.4444H14.7739C14.8965 36.4444 14.9578 36.4137 15.0191 36.3831C15.0498 36.3524 15.1111 36.2911 15.1417 36.1992L16.9502 29.3639H24.1839L26.0229 36.1992C26.0843 36.3524 26.2069 36.4138 26.3908 36.4138H30.1302V36.475Z" fill="#3E1E0D"/>
<path d="M37.7932 18.2682V36.1992C37.7932 36.2912 37.7932 36.3525 37.7626 36.3831C37.7319 36.4444 37.6706 36.4444 37.5173 36.4444H34.0231C33.8392 36.4138 33.7166 36.3218 33.7166 36.1379L33.6859 18.2375C33.6553 18.0536 33.7472 17.9617 33.9618 17.9617H37.5173C37.7012 17.9617 37.7932 18.0536 37.7932 18.2682Z" fill="#FF7E1B"/>
<path d="M35.7393 10.7893C37.2718 10.9426 38.0688 11.7395 38.0688 13.1188C38.0688 13.8544 37.8542 14.4368 37.3945 14.8353C36.9347 15.2338 36.383 15.4483 35.7086 15.4483C34.2067 15.387 33.4404 14.6207 33.4404 13.1188C33.4404 12.3832 33.655 11.8008 34.1148 11.4023C34.5439 10.9732 35.0956 10.7893 35.7393 10.7893Z" fill="#FF7E1B"/>
<path d="M30.2833 36.1686C30.3753 36.3832 30.314 36.4751 30.1301 36.4751H26.36C26.176 36.4751 26.0534 36.4138 25.9921 36.2606L24.1531 29.4253H16.9193L15.1109 36.2606C15.0803 36.3525 15.0496 36.4138 14.9883 36.4445C14.9577 36.4751 14.8657 36.5058 14.7431 36.5058H11.4327C11.3101 36.5058 11.2182 36.4751 11.1875 36.4138C11.1569 36.3525 11.1569 36.2606 11.1875 36.138L17.6243 13.5786C17.6856 13.3947 17.7469 13.1494 17.7776 12.8736C17.8082 12.5977 17.8389 12.1993 17.8389 11.6782C17.8695 11.5249 17.9308 11.4636 18.0228 11.4636H22.7737C22.8657 11.4636 22.927 11.4636 22.9577 11.5249C22.9883 11.5556 23.019 11.6169 23.019 11.7088L30.2833 36.1686ZM17.8082 25.7471H23.1722C22.9577 24.9502 22.7124 23.9387 22.4059 22.7127C22.0381 21.364 21.6703 19.9847 21.3331 18.5747C20.9653 17.1648 20.6895 16 20.5055 15.0192H20.4442C20.199 16.4291 19.8312 18.0843 19.3101 20.046C18.8197 22.0383 18.2986 23.9081 17.8082 25.7471Z" fill="#FF7E1B"/>
<path d="M23.2029 25.7471H17.8389C18.3293 23.908 18.8504 22.0383 19.3408 20.0766C19.8312 18.1149 20.2297 16.4598 20.4749 15.0498H20.5362C20.7507 16 21.0266 17.1954 21.3638 18.6054C21.7316 20.0153 22.0994 21.364 22.4366 22.7433C22.7431 23.9387 22.9883 24.9502 23.2029 25.7471Z" fill="#3E1E0D"/>
</svg>
