<svg width="43" height="48" viewBox="0 0 43 48" fill="none" xmlns="http://www.w3.org/2000/svg">
<path d="M3.85029 43.2017L0 0H42.3223L38.4669 43.1949L21.1354 48L3.85029 43.2017Z" fill="#1572B6"/>
<path d="M21.1616 44.3281L35.1673 40.4452L38.4622 3.5332H21.1616V44.3281Z" fill="#33A9DC"/>
<path d="M21.1616 19.1847H28.1731L28.6565 13.7589H21.1616V8.46008H21.1805H34.4473L34.3205 9.88123L33.0193 24.4835H21.1616V19.1847Z" fill="white"/>
<path d="M21.1944 32.9452L21.1704 32.9521L15.2698 31.3578L14.8927 27.1321H12.0247H9.57324L10.3155 35.4515L21.1687 38.4652L21.1944 38.4584V32.9452Z" fill="#EBEBEB"/>
<path d="M27.7217 24.2589L27.0839 31.3543L21.1748 32.9486V38.4618L32.0365 35.4515L32.1171 34.5566L33.0377 24.2589H27.7217Z" fill="white"/>
<path d="M21.1805 8.46008V11.7515V13.7452V13.7589H8.39874H8.3816L8.27531 12.5675L8.0336 9.88123L7.90674 8.46008H21.1805Z" fill="#EBEBEB"/>
</svg>
