<svg width="50" height="48" viewBox="0 0 50 48" fill="none" xmlns="http://www.w3.org/2000/svg">
<path d="M40.3773 47.8031H8.84321C4.06224 47.8031 0.196777 43.9377 0.196777 39.1567V8.84333C0.196777 4.06236 4.06224 0.196899 8.84321 0.196899H40.3773C45.1582 0.196899 49.0237 4.06236 49.0237 8.84333V39.1567C49.0237 43.9377 45.1582 47.8031 40.3773 47.8031Z" fill="#26C9FF"/>
<path d="M39.6044 45.7686H9.61651C5.54761 45.7686 2.23145 42.4525 2.23145 38.3836V9.61639C2.23145 5.54748 5.54761 2.23132 9.61651 2.23132H39.584C43.6733 2.23132 46.9691 5.54748 46.9691 9.61639V38.3632C46.9894 42.4525 43.6733 45.7686 39.6044 45.7686Z" fill="#061E26"/>
<path fill-rule="evenodd" clip-rule="evenodd" d="M12.2002 12.1187C12.2002 11.9967 12.2409 11.8949 12.4036 11.8949C13.6853 11.8339 15.5164 11.7932 17.4898 11.7932C22.9828 11.7932 25.3835 14.8042 25.3835 18.6697C25.3835 23.7151 21.6808 25.8716 17.205 25.8716C16.4522 25.8716 16.1877 25.8309 15.6588 25.8309V33.5619C15.6588 33.7246 15.5977 33.7857 15.435 33.7857H12.424C12.2612 33.7857 12.2002 33.7246 12.2002 33.5619V12.1187ZM15.6588 22.6572C16.1063 22.6979 16.4726 22.6979 17.266 22.6979C19.5853 22.6979 21.8028 21.8841 21.8028 18.7307C21.8028 16.208 20.2159 14.9263 17.5508 14.9263C16.7574 14.9263 16.0046 14.967 15.6588 14.9873V22.6572ZM33.3992 20.2972C31.8327 20.2972 31.3037 21.0907 31.3037 21.7417C31.3037 22.4538 31.6699 22.9624 33.7654 24.0406C36.8781 25.5461 37.8547 26.9906 37.8547 29.1268C37.8547 32.3005 35.4337 34.0095 32.1582 34.0095C30.4289 34.0095 28.8827 33.6433 28.0283 33.155C27.9062 33.094 27.8655 32.9922 27.8655 32.8295V29.8999C27.8655 29.6964 27.9672 29.6354 28.0893 29.7371C29.3303 30.5509 30.8561 30.9171 32.1582 30.9171C33.7247 30.9171 34.3757 30.2661 34.3757 29.3709C34.3757 28.6588 33.9282 28.0282 31.9141 26.9702C29.0862 25.6275 27.9265 24.2441 27.9265 21.9655C27.9265 19.4021 29.9203 17.2862 33.3992 17.2862C35.1082 17.2862 36.3695 17.5507 37.0205 17.8355C37.1833 17.9373 37.224 18.1 37.224 18.2221V20.9483C37.224 21.111 37.1223 21.2127 36.9392 21.1517C36.044 20.6227 34.6809 20.2972 33.3992 20.2972V20.2972Z" fill="#D9F5FF"/>
</svg>
