<svg width="49" height="48" viewBox="0 0 49 48" fill="none" xmlns="http://www.w3.org/2000/svg">
<path d="M47.0934 21.8625L26.1384 0.907484C25.8517 0.619843 25.5111 0.391615 25.1361 0.235888C24.761 0.0801615 24.3589 0 23.9529 0C23.5468 0 23.1447 0.0801615 22.7697 0.235888C22.3946 0.391615 22.054 0.619843 21.7674 0.907484L17.4152 5.25961L22.9347 10.7791C23.5855 10.5576 24.2855 10.5233 24.9549 10.6803C25.6243 10.8373 26.2361 11.1791 26.7206 11.6669C27.2051 12.1546 27.5429 12.7687 27.6955 13.4391C27.848 14.1094 27.8092 14.8092 27.5834 15.4586L32.8971 20.7723C33.6914 20.4995 34.5552 20.507 35.3446 20.7937C36.134 21.0804 36.8013 21.629 37.2353 22.3479C37.6693 23.0669 37.8439 23.9129 37.7299 24.745C37.6159 25.5771 37.2202 26.345 36.6088 26.9207C35.9974 27.4964 35.2071 27.8453 34.3697 27.9091C33.5323 27.9729 32.6983 27.7479 32.0067 27.2714C31.3151 26.795 30.8076 26.0959 30.5688 25.2907C30.33 24.4855 30.3744 23.6229 30.6945 22.8464L25.7321 17.884V30.9404C26.4838 31.3129 27.0852 31.9316 27.4362 32.6936C27.7871 33.4556 27.8664 34.3148 27.6608 35.1282C27.4553 35.9415 26.9772 36.6599 26.3064 37.1636C25.6355 37.6673 24.8123 37.926 23.9739 37.8965C23.1355 37.867 22.3325 37.5512 21.6987 37.0016C21.0648 36.4521 20.6384 35.7019 20.4904 34.8761C20.3425 34.0504 20.4819 33.1988 20.8855 32.4634C21.289 31.7279 21.9324 31.1529 22.7084 30.8342V17.6578C22.2595 17.4736 21.8514 17.2024 21.5078 16.8598C21.1641 16.5172 20.8916 16.11 20.706 15.6617C20.5203 15.2133 20.4253 14.7327 20.4262 14.2474C20.4272 13.7622 20.5241 13.2819 20.7115 12.8343L15.2777 7.39711L0.908345 21.7717C0.620446 22.0583 0.392 22.399 0.236121 22.7742C0.0802425 23.1494 0 23.5517 0 23.958C0 24.3643 0.0802425 24.7666 0.236121 25.1418C0.392 25.517 0.620446 25.8577 0.908345 26.1444L21.8634 47.0925C22.15 47.3802 22.4906 47.6084 22.8657 47.7641C23.2407 47.9198 23.6428 48 24.0489 48C24.4549 48 24.857 47.9198 25.2321 47.7641C25.6071 47.6084 25.9477 47.3802 26.2343 47.0925L47.0934 26.2283C47.3813 25.9417 47.6097 25.601 47.7656 25.2258C47.9215 24.8506 48.0017 24.4483 48.0017 24.042C48.0017 23.6357 47.9215 23.2334 47.7656 22.8582C47.6097 22.483 47.3813 22.1423 47.0934 21.8556" fill="#DD4C35"/>
<path d="M17.4153 5.25977L22.9348 10.7792C23.5856 10.5577 24.2856 10.5235 24.955 10.6805C25.6243 10.8374 26.2361 11.1793 26.7207 11.667C27.2052 12.1548 27.543 12.7688 27.6955 13.4392C27.8481 14.1096 27.8092 14.8094 27.5834 15.4587L32.8972 20.7725C33.6915 20.4996 34.5553 20.5072 35.3447 20.7939C36.134 21.0806 36.8013 21.6291 37.2354 22.3481C37.6694 23.0671 37.844 23.9131 37.73 24.7452C37.616 25.5772 37.2203 26.3451 36.6089 26.9209C35.9974 27.4966 35.2072 27.8454 34.3698 27.9093C33.5324 27.9731 32.6984 27.748 32.0068 27.2716C31.3151 26.7951 30.8077 26.0961 30.5689 25.2909C30.3301 24.4857 30.3745 23.623 30.6946 22.8466L25.7322 17.8842V30.9406C26.4839 31.313 27.0853 31.9318 27.4363 32.6938C27.7872 33.4558 27.8665 34.315 27.6609 35.1283C27.4553 35.9417 26.9773 36.66 26.3065 37.1637C25.6356 37.6675 24.8124 37.9261 23.974 37.8967C23.1356 37.8672 22.3326 37.5514 21.6988 37.0018C21.0649 36.4522 20.6385 35.7021 20.4905 34.8763C20.3426 34.0505 20.482 33.199 20.8856 32.4635C21.2891 31.7281 21.9325 31.1531 22.7085 30.8343V17.6579C22.2596 17.4737 21.8515 17.2025 21.5078 16.86C21.1642 16.5174 20.8917 16.1102 20.7061 15.6618C20.5204 15.2135 20.4254 14.7328 20.4263 14.2476C20.4273 13.7623 20.5242 13.2821 20.7116 12.8344L15.2778 7.39726" fill="white"/>
</svg>
