<svg width="49" height="49" viewBox="0 0 49 49" fill="none" xmlns="http://www.w3.org/2000/svg">
<path d="M38.2603 0.6875H11.1147C5.35591 0.6875 0.6875 5.35591 0.6875 11.1147V38.2603C0.6875 44.0191 5.35591 48.6875 11.1147 48.6875H38.2603C44.0191 48.6875 48.6875 44.0191 48.6875 38.2603V11.1147C48.6875 5.35591 44.0191 0.6875 38.2603 0.6875Z" fill="url(#paint0_linear)"/>
<path d="M38.3307 1.95667H11.0439C6.0251 1.95667 1.95654 6.02522 1.95654 11.044V38.3308C1.95654 43.3496 6.0251 47.4182 11.0439 47.4182H38.3307C43.3495 47.4182 47.4181 43.3496 47.4181 38.3308V11.044C47.4181 6.02522 43.3495 1.95667 38.3307 1.95667Z" fill="black"/>
<path d="M38.3661 5.53369H11.0099C7.98575 5.53369 5.53418 7.98526 5.53418 11.0094V38.3656C5.53418 41.3898 7.98575 43.8414 11.0099 43.8414H38.3661C41.3903 43.8414 43.8419 41.3898 43.8419 38.3656V11.0094C43.8419 7.98526 41.3903 5.53369 38.3661 5.53369Z" fill="#202A2F"/>
<path d="M21.457 8.07202H16.2646V18.4566H21.457V8.07202Z" fill="#0EE827" fill-opacity="0.35"/>
<path d="M10.8511 16.6848C10.5795 16.6618 10.325 16.6234 10.0875 16.5697C9.85838 16.5082 9.64629 16.443 9.45114 16.3739C9.2645 16.3047 9.09906 16.2395 8.95483 16.178C8.8191 16.1089 8.71728 16.0552 8.64941 16.0168L9.19664 15.0032C9.256 15.0416 9.35782 15.0953 9.50205 15.1644C9.64629 15.2335 9.80747 15.3065 9.98567 15.3833C10.1723 15.4524 10.3632 15.5138 10.5583 15.5675C10.7535 15.6213 10.9359 15.6482 11.1056 15.6482C11.954 15.6482 12.3782 15.3295 12.3782 14.6922C12.3782 14.5386 12.3485 14.4119 12.2891 14.3121C12.2382 14.2122 12.1576 14.1278 12.0473 14.0587C11.9455 13.9819 11.8182 13.9166 11.6656 13.8628C11.5213 13.8014 11.3559 13.74 11.1692 13.6786C10.8128 13.5557 10.4947 13.429 10.2147 13.2984C9.94326 13.1603 9.7099 13.0066 9.51481 12.8377C9.31967 12.6688 9.17118 12.4768 9.06936 12.2618C8.96759 12.0468 8.91668 11.8011 8.91668 11.5246C8.91668 11.3096 8.96334 11.1023 9.05666 10.9026C9.14998 10.703 9.28145 10.5264 9.45114 10.3728C9.62083 10.2116 9.82448 10.0772 10.062 9.96966C10.2996 9.85449 10.5626 9.77387 10.8511 9.72779V8.07202H11.8946V9.70472C12.1152 9.72779 12.3273 9.76233 12.5309 9.80841C12.7345 9.85449 12.9169 9.90441 13.0781 9.95812C13.2394 10.0119 13.3751 10.0657 13.4854 10.1194C13.6041 10.1655 13.689 10.2 13.7399 10.2231L13.2309 11.1676C13.163 11.1369 13.0654 11.0985 12.9381 11.0524C12.8194 10.9986 12.6836 10.9449 12.5309 10.8912C12.3782 10.8374 12.2128 10.7913 12.0346 10.7529C11.8564 10.7145 11.6782 10.6953 11.5001 10.6953C11.2116 10.6953 10.9528 10.7491 10.7238 10.8566C10.5032 10.9564 10.3929 11.1292 10.3929 11.3749C10.3929 11.5285 10.4226 11.6667 10.482 11.7896C10.5498 11.9047 10.6432 12.0084 10.7619 12.1005C10.8892 12.1927 11.042 12.281 11.2201 12.3655C11.4067 12.4422 11.6189 12.5191 11.8564 12.5959C12.1703 12.711 12.4503 12.83 12.6963 12.9529C12.9424 13.0758 13.1502 13.214 13.3199 13.3676C13.4896 13.5211 13.6169 13.6978 13.7017 13.8974C13.795 14.0971 13.8417 14.3313 13.8417 14.6C13.8417 14.8304 13.7993 15.0531 13.7145 15.2681C13.6381 15.4831 13.5151 15.6828 13.3454 15.867C13.1842 16.0513 12.9806 16.2126 12.7345 16.3508C12.497 16.4814 12.217 16.5774 11.8946 16.6388V18.3413H10.8511V16.6848Z" fill="#0EE827"/>
<defs>
<linearGradient id="paint0_linear" x1="24.6875" y1="0.6875" x2="24.6875" y2="48.6875" gradientUnits="userSpaceOnUse">
<stop stop-color="#D4E6E8"/>
<stop offset="1" stop-color="#767573"/>
</linearGradient>
</defs>
</svg>
