<svg width="50" height="48" viewBox="0 0 50 48" fill="none" xmlns="http://www.w3.org/2000/svg">
<g clip-path="url(#clip0)">
<path d="M40.513 48H8.71778C3.89711 48 0 44.1029 0 39.2822V8.71778C0 3.89711 3.89711 0 8.71778 0H40.513C45.3337 0 49.2308 3.89711 49.2308 8.71778V39.2822C49.2308 44.1029 45.3337 48 40.513 48Z" fill="#FF26BE"/>
<path d="M39.733 45.9481H9.49743C5.39552 45.9481 2.05176 42.6044 2.05176 38.5025V9.49766C2.05176 5.39576 5.39552 2.052 9.49743 2.052H39.7133C43.8369 2.052 47.159 5.39576 47.159 9.49766V38.4828C47.1787 42.6044 43.835 45.9481 39.733 45.9481Z" fill="#2E001F"/>
<path d="M19.4661 22.461L25.2103 33.4966C25.3127 33.66 25.2517 33.8255 25.0863 33.8255H21.5161C21.2896 33.8255 21.1872 33.7644 21.0848 33.5596C19.7713 30.8519 18.4381 28.1442 17.0636 25.2317H17.0223C15.7915 27.9808 14.4367 30.8736 13.1252 33.5813C13.0228 33.7447 12.9204 33.8077 12.7549 33.8077H9.37377C9.16897 33.8077 9.14731 33.6443 9.25168 33.5202L14.8719 22.8116L9.43679 11.9808C9.31273 11.8173 9.43679 11.6933 9.55888 11.6933H13.0877C13.2925 11.6933 13.3753 11.7346 13.456 11.9197C14.7478 14.6274 16.0613 17.4178 17.2921 20.1452H17.3334C18.5228 17.4375 19.8363 14.6274 21.1084 11.9394C21.2108 11.776 21.2719 11.6736 21.4786 11.6736H24.781C24.9445 11.6736 25.0075 11.7976 24.9051 11.9611L19.4661 22.461ZM26.2166 25.8048C26.2166 21.0255 29.3969 17.2918 34.4421 17.2918C34.8733 17.2918 35.0978 17.2918 35.5094 17.3332V11.8981C35.5094 11.774 35.6118 11.6933 35.7142 11.6933H38.9556C39.119 11.6933 39.1604 11.7543 39.1604 11.8567V30.6885C39.1604 31.2418 39.1604 31.9389 39.2628 32.6991C39.2628 32.8231 39.2214 32.8625 39.0993 32.9255C37.3762 33.7467 35.5705 34.1149 33.8474 34.1149C29.3949 34.1327 26.2146 31.3856 26.2166 25.8048ZM35.5074 20.5548C35.2199 20.4308 34.8103 20.35 34.318 20.35C31.7324 20.35 29.9286 22.3389 29.9286 25.6433C29.9286 29.4183 31.7757 30.9366 34.0935 30.9366C34.5858 30.9366 35.1195 30.8756 35.5094 30.7101V20.5548H35.5074Z" fill="#FFD9F2"/>
</g>
<defs>
<clipPath id="clip0">
<rect width="49.2308" height="48" fill="white"/>
</clipPath>
</defs>
</svg>
