<svg width="50" height="48" viewBox="0 0 50 48" fill="none" xmlns="http://www.w3.org/2000/svg">
<path d="M49.2261 8.70499V39.295C49.2261 41.7165 48.3678 43.7701 46.682 45.4559C44.9962 47.1418 42.9119 48 40.5211 48H8.70498C6.28352 48 4.22989 47.1418 2.54407 45.4559C0.858243 43.7701 0 41.6858 0 39.295V8.70499C0 6.28353 0.858243 4.22988 2.54407 2.54406C4.22989 0.858234 6.31418 0 8.70498 0H40.5211C42.9425 0 44.9962 0.858234 46.682 2.54406C48.3985 4.22988 49.2261 6.28353 49.2261 8.70499ZM47.1724 38.4981V9.47127C47.1724 7.41763 46.4368 5.6705 44.9962 4.19924C43.5556 2.72797 41.7778 2.02298 39.7241 2.02298H9.47126C7.41762 2.02298 5.6705 2.75863 4.19924 4.19924C2.72797 5.6705 2.02299 7.41763 2.02299 9.50192V38.4981C2.02299 40.5517 2.75863 42.3295 4.19924 43.7701C5.6705 45.2414 7.41762 45.9464 9.47126 45.9464H39.7241C41.7778 45.9464 43.5249 45.2414 44.9349 43.8008C46.4061 42.3908 47.1418 40.613 47.1724 38.4981Z" fill="#D392FF"/>
<path d="M47.1724 9.47122V38.498C47.1417 40.613 46.4061 42.3908 44.9655 43.8314C43.5249 45.272 41.7777 45.977 39.7548 45.977H9.47122C7.41758 45.977 5.67046 45.2413 4.1992 43.8007C2.72793 42.3295 2.02295 40.5823 2.02295 38.5287V9.53251C2.02295 7.47887 2.75858 5.70109 4.1992 4.22983C5.67046 2.75856 7.41758 2.05359 9.47122 2.05359H39.7241C41.7777 2.05359 43.5555 2.78921 44.9961 4.22983C46.4368 5.67044 47.1724 7.41758 47.1724 9.47122ZM39.8467 26.636C39.9693 26.1762 40.0306 25.4406 40.0306 24.4904C40.0306 23.4789 39.8467 22.4674 39.4482 21.4252C39.0498 20.3831 38.4367 19.4942 37.5479 18.7892C36.659 18.0842 35.5249 17.7164 34.0536 17.7164C31.8774 17.7164 30.1915 18.5747 28.9961 20.2605C27.8007 21.977 27.2184 24.0306 27.2184 26.4214C27.2184 27.8927 27.4636 29.272 27.954 30.5287C28.4444 31.816 29.2107 32.8275 30.2835 33.6245C31.3563 34.3908 32.7969 34.7892 34.5747 34.7892C36.2299 34.7892 37.6092 34.544 38.6513 34.0229C38.7433 33.9616 38.8046 33.931 38.8352 33.8697C38.8659 33.8084 38.8965 33.7164 38.8965 33.6245V31.1111C38.8965 31.0191 38.8659 30.9578 38.8352 30.9578C38.7739 30.9272 38.7126 30.9272 38.6513 30.9578C37.6398 31.3869 36.5364 31.6015 35.341 31.6015C33.8084 31.6015 32.6743 31.1724 31.9693 30.3448C31.2643 29.5172 30.9272 28.4137 30.8965 27.0344L36.1992 27.0651C37.977 27.0651 39.1111 27.0038 39.5708 26.9118C39.6628 26.9118 39.7241 26.8505 39.7548 26.8199C39.7854 26.7586 39.8161 26.6973 39.8467 26.636ZM26.1456 34.4827C26.2988 34.4827 26.3295 34.3908 26.2988 34.2375L19.862 12.4137C19.8314 12.3218 19.8314 12.2605 19.8007 12.2605C19.7701 12.2298 19.7088 12.2298 19.6475 12.2298H15.3563C15.2643 12.2298 15.203 12.2911 15.203 12.4137C15.1724 12.9042 15.1417 13.2413 15.1111 13.4865C15.0804 13.7011 15.0498 13.9157 14.9578 14.0689L9.22602 34.1762C9.19536 34.2988 9.19536 34.3601 9.22602 34.4214C9.25667 34.4521 9.31797 34.4827 9.40993 34.4827H12.3831C12.4751 34.4827 12.567 34.4827 12.5977 34.4214C12.6283 34.3908 12.659 34.3295 12.6896 34.2375L14.2835 28.1992H20.7816L22.4674 34.2681C22.5287 34.3908 22.6206 34.4521 22.8046 34.4521H26.1456V34.4827Z" fill="#19003E"/>
<path d="M38.8662 31.1112V33.6552C38.8662 33.7472 38.8661 33.8391 38.8048 33.9004C38.7742 33.9617 38.7129 34.023 38.6209 34.0537C37.5788 34.5748 36.1995 34.82 34.5443 34.82C32.7665 34.82 31.3259 34.4215 30.2531 33.6552C29.1803 32.8583 28.414 31.8468 27.9236 30.5595C27.4332 29.2721 27.188 27.9234 27.188 26.4522C27.188 24.0614 27.7704 22.0077 28.9658 20.2913C30.1612 18.5748 31.847 17.7472 34.0232 17.7472C35.4638 17.7472 36.6286 18.0844 37.5175 18.82C38.4064 19.525 39.0194 20.4139 39.4179 21.456C39.8163 22.4981 40.0002 23.5096 40.0002 24.5211C40.0002 25.502 39.9389 26.207 39.8163 26.6667C39.8163 26.7587 39.7857 26.82 39.7244 26.8506C39.6937 26.8813 39.6324 26.9119 39.5405 26.9426C39.0807 27.0345 37.9466 27.0959 36.1688 27.0959L30.8661 27.0652C30.8968 28.4445 31.234 29.5479 31.9389 30.3755C32.6439 31.2338 33.7474 31.6322 35.3106 31.6322C36.506 31.6322 37.6094 31.4177 38.6209 30.9886C38.6822 30.9579 38.7435 30.9579 38.8048 30.9886C38.8355 30.9579 38.8662 31.0192 38.8662 31.1112ZM36.506 23.9694C36.506 23.9081 36.5366 23.8775 36.5366 23.8468C36.5366 23.4483 36.4753 23.0192 36.3221 22.5594C36.1688 22.069 35.893 21.6399 35.5251 21.2721C35.1573 20.9043 34.6056 20.7204 33.9006 20.7204C32.9198 20.7204 32.1842 21.0575 31.7244 21.7625C31.2646 22.4675 30.9887 23.2644 30.9274 24.2146H34.9734C35.4945 24.2146 35.893 24.2146 36.1075 24.2146C36.3221 24.2146 36.4447 24.2146 36.4753 24.184C36.506 24.1227 36.506 24.0307 36.506 23.9694Z" fill="#D392FF"/>
<path d="M36.5364 23.8468C36.5364 23.8774 36.5364 23.9387 36.5058 23.9694C36.4751 24.0307 36.4751 24.092 36.4751 24.184C36.4445 24.2146 36.3219 24.2146 36.1073 24.2146C35.8928 24.2146 35.525 24.2146 34.9732 24.2146H30.9272C31.0192 23.2644 31.2951 22.4675 31.7242 21.7625C32.184 21.0575 32.9196 20.7203 33.9004 20.7203C34.6054 20.7203 35.1265 20.9043 35.5249 21.2721C35.8928 21.6399 36.1686 22.069 36.3219 22.5594C36.4751 23.0498 36.5364 23.479 36.5364 23.8468Z" fill="#19003E"/>
<path d="M26.2989 34.2375C26.3602 34.3908 26.2989 34.4827 26.1457 34.4827H22.8047C22.6514 34.4827 22.5288 34.4214 22.4675 34.2988L20.7817 28.2298H14.2836L12.6897 34.2682C12.6897 34.3601 12.6591 34.4214 12.5978 34.4521C12.5671 34.4827 12.4752 34.5134 12.3832 34.5134H9.41002C9.31807 34.5134 9.25676 34.4827 9.22611 34.4521C9.19546 34.4214 9.19546 34.3295 9.22611 34.2069L14.9579 14.0996C15.0192 13.9463 15.0805 13.7318 15.1112 13.5172C15.1418 13.3026 15.1725 12.9348 15.2031 12.4444C15.2031 12.3218 15.2644 12.2605 15.3564 12.2605H19.6476C19.7395 12.2605 19.7702 12.2605 19.8008 12.2911C19.8315 12.3218 19.8315 12.3831 19.8621 12.4444L26.2989 34.2375ZM17.6246 24.9502C18.2683 24.9502 19.0652 24.9502 20.0154 24.9502C19.8315 24.1532 19.5556 23.1417 19.2185 21.9157C18.9119 20.7509 18.6054 19.5862 18.2989 18.3908C17.9924 17.1954 17.7472 16.2145 17.5633 15.4176H17.502C17.0422 17.6245 16.3985 20.2605 15.5709 23.295C15.4177 23.8467 15.2644 24.3984 15.1112 24.9502C15.1725 24.9502 15.4177 24.9502 15.9081 24.9502C16.4292 24.9502 16.9809 24.9502 17.6246 24.9502Z" fill="#D392FF"/>
<path d="M20.0152 24.9502C19.065 24.9502 18.2374 24.9502 17.6244 24.9502C16.9807 24.9502 16.429 24.9502 15.9385 24.9502C15.4481 24.9502 15.1723 24.9502 15.1416 24.9502C15.2949 24.4291 15.4481 23.8774 15.6014 23.295C16.429 20.2605 17.0726 17.6245 17.5324 15.4176H17.5937C17.7776 16.2145 18.0228 17.1954 18.3293 18.3908C18.6359 19.5862 18.9424 20.7509 19.2489 21.9157C19.5554 23.1417 19.8313 24.1532 20.0152 24.9502Z" fill="#19003E"/>
</svg>
