<svg width="43" height="48" viewBox="0 0 43 48" fill="none" xmlns="http://www.w3.org/2000/svg">
<path d="M3.852 43.2017L0 0H42.3257L38.4686 43.1949L21.1371 48L3.852 43.2017Z" fill="#E44F26"/>
<path d="M21.1631 44.3281L35.1688 40.4452L38.4637 3.5332H21.1631V44.3281Z" fill="#F1662A"/>
<path d="M21.1632 19.5549H14.1517L13.6683 14.1292H21.1632V8.83032H21.1443H7.87744L8.0043 10.2532L9.30544 24.8537H21.1632V19.5549Z" fill="#EBEBEB"/>
<path d="M21.1636 33.3153L21.1396 33.3222L15.2391 31.7296L14.8619 27.5039H11.9939H9.54248L10.2848 35.8216L21.1396 38.8353L21.1636 38.8285V33.3153Z" fill="#EBEBEB"/>
<path d="M21.144 19.5548V24.8537H27.6686L27.0549 31.7262L21.144 33.3205V38.8337L32.0075 35.8217L32.0863 34.9268L33.3309 20.9777L33.4612 19.5548H32.0332H21.144Z" fill="white"/>
<path d="M21.144 8.83032V12.1217V14.1172V14.1292H33.9258H33.9429L34.0492 12.9395L34.2909 10.2532L34.4178 8.83032H21.144Z" fill="white"/>
</svg>
